/* XPM */
static char *_3e2bb4d36c5440ef808f8d6b4085e62lef6rx1W63Boz2h0[] = {
/* columns rows colors chars-per-pixel */
"42 42 11 1 ",
"  c #321B04",
". c #002800",
"X c #260123",
"o c #573905",
"O c #144E00",
"+ c #1B4F08",
"@ c #1B5F03",
"# c #2E7907",
"$ c #620551",
"% c #77196F",
"& c #AD9999",
/* pixels */
"##########################################",
"###############################&&#########",
"###############################&&#########",
"#####&&########################&&&########",
"###############################&&&####+###",
"##############&&#####o###############++###",
"##############&&###ooooo#############++###",
"############## ####oooooo#+##########+####",
"########+##### ##### oooo ##+#############",
"########++###  o#### oooo  #+#############",
"########++### oo###  ooo  ############&###",
"########OOO##oooooooooo###############&###",
"########.+O##ooooooooo####################",
"########..O+#oooXXXooo########@###########",
"########..O+#ooXX$XXoo######@@@##&########",
"########...#ooXX%$$XXoo#o###@@###&########",
"########..# ooX$%$$XXoooo###@@######++####",
"####o#####  oXX$%%%%XXoo o##@@########+###",
"####ooo### oXXX$%%$$$XXo  ##@@########+###",
"####ooo### oX$$%%$X%%$Xoo ###@############",
"####oooo##ooX$X%$$XX%$XXo ###@#####oo#####",
"###ooooo#oooX$XX$%$X%$$Xo ########ooo#####",
"###oo ooooooX$$X$%XX$X$Xo ########oooo####",
"###o  o##oooX%$X$%%X$$$Xoo##&&####oo  ##O#",
"###o  ###oooXX$%%%%$$%XXoo#&&###o#oo  #OO#",
"#########oooXX$$%XX$%%Xo  ###### ooo  #OO#",
"##########oooXX$%%X$%XXo    ###o ooo  #OO#",
"########## oooXX%%$$XXoo######o  oooo #OO#",
"####&##### ooooX$$$XXoo  #####o  oooo #OO#",
"###&&&&### # ooXX$XXooo  ####o   oo   ####",
"###&&&&#####  ooXXXooo#######   ooo  #####",
"###&&#######   oooooo######## o ooo ######",
"###&&#########     oo######## o ooo#######",
"###############@@@############ooooo  #####",
"###############@@+#####O######oooo   #####",
"#########+++###########OO######    #######",
"#########+++######&&###OO#####     #######",
"########++++###########O######     #######",
"###&####++++#############++++#############",
"############################++#######&####",
"############################++#######&####",
"##########################################"
};
