/* XPM */
static char *_16fbfcc14974ac7bb64149f7e07156aNPb6K3reQ1ZYO5t9[] = {
/* columns rows colors chars-per-pixel */
"42 42 7 1 ",
"  c #260123",
". c #59071F",
"X c #573905",
"o c #1B4F08",
"O c #2E7907",
"+ c #620551",
"@ c #AD9999",
/* pixels */
"OOOOOOOOOOOOOOOOOOOOOOOOOOOOOOOOOOOOOOOOOO",
"OOOOOOOOOOOOOOOOOOOOOOOOOOOOOOO@@OOOOOOOOO",
"OOOOOOOOOOOOOOOOOOOOOOOOOOOOOOO@@OOOOOOOOO",
"OOOOO@@OOOOOOOOOOOOOOOOOOOOOOOO@@@OOOOOOOO",
"OOOOOOOOOOOOOOOOOOOOOOOOOOOOOOO@@@OOOOoOOO",
"OOOOOOOOOOOOOO@@OOOOOOOOOOOOOOOOOOOOOooOOO",
"OOOOOOOOOOOOOO@@OOOOOOOOOOOOOOOOOOOOOooOOO",
"OOOOOOOOOOOOOOOOOOOOOOOOOOoOOOOOOOOOOoOOOO",
"OOOOOOOOoOOOOOOOOOOOOOOO.OOOoOOOOOOOOOOOOO",
"OOOOOOOOooOOOOOOOOOOOOO..OOOoOOOOOOOOOOOOO",
"OOOOOOOOooOOOOOOOOOOOOO.OOOOOOOOOOOOOO@OOO",
"OOOOOOOO....OOOOOOOOOO..OOOOOOOOOOOOOO@OOO",
"OOOOOOOOoooo.OOOOOOOOO.OOOOOOOOOOOOOOOOOOO",
"OOOOOOOOOoooOOOO +OOOO.OOOOOOOOOOOOOOOOOOO",
"OOOOOOOOOoooOOO+ ++OOO.OOOOOOOOOO@OOOOOOOO",
"OOOOOOOOOooOOO+  ++ OOOOOOOOOOOOO@OOOOOOOO",
"OOOOOOOOOOOOOO+++++ OOOOOOOOOOOOOOOOOOOOOO",
"OOOOXOOOOOOOO++++++ +OOOOOOOOOOOOOOOOOOOOO",
"OOOOXXXOOOOO++ ++ +++OOOOOOOOOOOOOOOOOOOOO",
"OOOOXXXOOOOO++++++ +++OOOOOOOOOOOOOOOOOOOO",
"OOOOXXXXOOOO++ +++  ++OOOOO..OOOOOOXXOOOOO",
"OOOXXXXXOOOO++  +++ ++OOO..OOOOOOOXXXOOOOO",
"OOOXX....OOO+++ ++  + O...OOOOOOOOXXXXOOOO",
"OOO...XOOOOO  + +   ++OOOOOOOOOOOOXXXXOOOO",
"OOOXXOOOOOOO+ ++++++++OOOOOOOOOOXOXXXXOOOO",
"OOOOOOOOOOOO+ +++  ++OOOOOOOOOOOXXXXXXOOOO",
"OOOOOOOOOOOOO+++++ ++OOOOOOOOOOXXXXXXXOOOO",
"OOOOOOOOOOOOOO++  +++OOOOOOOOOXXXXXXXXOOOO",
"OOOO@OOOOOOOOOO+++++OO.OOOOOOOXXXXXXXXOOOO",
"OOO@@@@O.OOOOOO++++OOO..OOOOOXXXXXXXXOOOOO",
"OOO@@@@.OOOOOOOO++OOOOO.OOOOOXXXXXXXXOOOOO",
"OOO@@O..OOOOOOOOOOOOOOOOOOOOOXXXXXXOOOOOOO",
"OOO@@O.OOOOOOOOOO.OOOOOOOOOOOXXXXXXOOOOOOO",
"OOOOO..OOOOOOOOO..OOOOOOOOOOOOXXXXXXXOOOOO",
"OOOOO.OOOOOOOOOO.OOOOOOOOOOOOOXXXXXXXOOOOO",
"OOOOOOOOOoooOOOO..OOOOOOOOOOOOOXXXXOOOOOOO",
"OOOOOOOOOoooOOOOOO@@OOOOOOOOOOOXXXXOOOOOOO",
"OOOOOOOOooooOOOOOOOOOOOOOOOOOOOOOOOOOOOOOO",
"OOO@OOOOooooOOOOOOOOOOOOOooooOOOOOOOOOOOOO",
"OOOOOOOOOOOOOOOOOOOOOOOOOOOOooOOOOOOO@OOOO",
"OOOOOOOOOOOOOOOOOOOOOOOOOOOOooOOOOOOO@OOOO",
"OOOOOOOOOOOOOOOOOOOOOOOOOOOOOOOOOOOOOOOOOO"
};
