/* XPM */
static char *_7ab53cd5dab477f9593c615df41211bxJ9KZaUtB68Pqm14[] = {
/* columns rows colors chars-per-pixel */
"42 42 5 1 ",
"  c #260123",
". c #573905",
"X c #1B4F08",
"o c #2E7907",
"O c #AD9999",
/* pixels */
"oooooooooooooooooooooooooooooooooooooooooo",
"oooooooooooooooooooooXoooooooooOOooooooooo",
"ooooooooooooooooooooXXoooooooooOOooooooooo",
"oooooOOoooooooooooooXooooooooooOOOoooooooo",
"oooooooooooooooooooooooooooooooooooooooooo",
"ooooooooooooooOOoooooooooooooooooooooOoooo",
"ooooooooooooooOOoooooooooooooooooooooooooo",
"ooooooooooooooooooooooooooXXoooooooooooooo",
"ooooooooXoooooooooooooooooooXooooooooooooo",
"ooooooooXXooooo            ooooooooooooooo",
"ooOoooooXXooo                 ooooooooOooo",
"ooooooooXXo         .oo         ooooooOooo",
"ooooooooX       .....oooooo       oooooooo",
"oooooooo      .......oooooooo      ooooooo",
"ooooooo     oo.......oooooooooo     oooooo",
"oooooo     Xoo....o.oooooooooooo     ooooo",
"oooooo    oooo...oooooooooooooooo    ooooo",
"oooo.o    oooo...oooooooooooooooo    ooooo",
"oooo..    oooo..ooooooooooooooooo    ooooo",
"oooo..    ooooooooooooooooooooooo    ooooo",
"oooo..    ooooooooooooooXoooooooo    ooooo",
"ooo...    ooooooooooooooXXoooo.oo    ooooo",
"ooo...    oooooooooooXXXXooooo...    .oooo",
"ooo...    ooXXoooooooXXXXooooo...    .oooo",
"ooo..o    ooXXoooooooXoooooooo...    .oooo",
"oooooo    oooXXooooooooooooooo...    .oooo",
"oooooo    oooooXXooooooooooooo...    .oooo",
"oooooo    oooooooooooooooooooo...    .oooo",
"ooooOo    ooooooooooooooooooo....    .oooo",
"oooOOO    ooOooooooooooooooooo...    ooooo",
"oooOOO    ooooooooooOOoooooooo...    ooooo",
"oooOO      oooooooooOOOOoooooo..      oooo",
"oooOO  OO  oooooooooOOOOoooooo..  OO  oooo",
"ooooo  OO  ooooooooooooooooooo..  OO  oooo",
"ooooo  OO  ooooooooooooooooooooo  OO  oooo",
"ooooo      oooooooOOoooooooooooo      oooo",
"ooo          oooooOOoooooooooo          oo",
"ooo          ooooooooooooooooo          oo",
"ooo          ooooooooooooXXXXo          oo",
"ooooooooooooooooXXooooooooooXXoooooooOoooo",
"ooooooooooooooooXXXoooooooooXXoooooooOoooo",
"oooooooooooooooXXooooooooooooooooooooooooo"
};
