/* XPM */
static char *_8889c4e7b944ad5b3d7d2fe7feaf1bfdHIZSkk4D8I4ruPP[] = {
/* columns rows colors chars-per-pixel */
"42 42 6 1 ",
"  c #260123",
". c #573905",
"X c #1B4F08",
"o c #2E7907",
"O c #620551",
"+ c #AD9999",
/* pixels */
"oooooooooooooooooooooooooooooooooooooooooo",
"oooooooooooooooooooooXooooooooo++ooo ooooo",
"ooooooooooooooooooooXXoo oooooo++oo oooooo",
"ooooo++oooooooooooooXoo  oooooo+++o oooooo",
"oooooooo oooooooooooooo oooooooooo  oooooo",
"oooooooo  oooo++oooooo  ooooooooo  oo+oooo",
"oooooooooo ooo++ooooo  oooooooooo oooooooo",
"oooooooooo  ooooooooooooooXXoooooooooooooo",
"ooooooooXoo ooooooooooooooooXooooooooooooo",
"ooooooooXXo ooo            ooooooooooooooo",
"oo+oooooXXooo                 oooooooo+ooo",
"ooooooooXXo         OOO         oooooo+ooo",
"ooooooooX       OOOOOOOOOOO       ooo  ooo",
"oooooooo      OOOOOOOO  OOOOO      oooo  o",
"ooooooo     OOOOOOOOOO   OOOOOO     oooo  ",
"oooooo     OOOOOO    O    OOOOOO     ooooo",
"o  ooo    OOOO       OO   OOOOOOO    ooooo",
"oo  .o    OOOO    OOOOOO  OO  OOO    ooooo",
"ooo ..    OOOO  OOOOOOOOOOOO   OO    ooooo",
"ooo ..    OOOO  OOO      OOOO  OO    ooooo",
"oooo..    OOOO    O      OOOO  OO    ooooo",
"ooo...    OOOOO    OOOO  OOO   OO    ooooo",
"ooo...    OOOOOOO   OOO  OOO  OOO    .oooo",
"ooo...    OO   OO     O   OOOOOOO    .oooo",
"ooo..o    OO    OOOO  OO  OOOOOOO    .oooo",
"oooooo    OOO    OO   OOOOOOOOOOO    .o oo",
"oooooo    OOOO   OO   OOOOO     O    .oo o",
"oooooo    OOOOO  OOOOOOOOOO     O    .ooo ",
"oooo+o    OOOOO  OOOOOOOOO   OOOO    .oooo",
"ooo+++    OOOOOOOOOO   OO   OOOOO    ooooo",
"ooo+++    OOO  OOOOO   OO  OOOOOO    ooooo",
"ooo++      OO  OOOOO  OOO  OOOOO      oooo",
"ooo++  OO  OO   OOOO  OOO   OOOO  OO  oooo",
"ooooo  OO  OO    OOO   OOO  OOOO  OO  oooo",
"ooooo  OO  OOOO  OOO   OOOOOOOOO  OO  oooo",
"ooooo      OOOO   OOOOOOOOOOOOOO      oooo",
"ooo          OO   O      OOOOO          oo",
"ooo          OOOOOO      OOOOO          oo",
"ooo          OOOOOOOOOOOOOOOOO          oo",
"ooooooooooooooooXXooooooooooXXooooooo+oooo",
"ooooooooooooooooXXXooo oooooXXooooooo+oooo",
"ooooo    ooooooXXoooo  ooooooooooooooooooo"
};
