/* XPM */
static char *_bd1719884914266cbee9bab0c31a327p1sUQfAUCloE7Ghy[] = {
/* columns rows colors chars-per-pixel */
"42 42 4 1 ",
"  c #573905",
". c #1B4F08",
"X c #2E7907",
"o c #AD9999",
/* pixels */
"XXXXXXXXXXXXXXXXXXXXXXXXXXXXXXXXXXXXXXXXXX",
"XXXXXXXXXXXXXXXXXXXXXXXXXXXXXXXooXXXXXXXXX",
"XXXXXXXXXXXXXXXXXXXXXXXXXXXXXXXooXXXXXXXXX",
"XXXXXooXXXXXXXXXXXXXXXXXXXXXXXXoooXXXXXXXX",
"XXXXXXXXXXXXXXXXXXXXXXXXXXXXXXXoooXXXX.XXX",
"XXXXXXXXXXXXXXooXXXXXXXXXXXXXXXXXXXXX..XXX",
"XXXXXXXXXXXXXXooXXXXXXXXXXXXXXXXXXXXX..XXX",
"XXXXXXXXXXXXXXXXXXXXXXXXXX..XXXXXXXXX.XXXX",
"XXXXXXXX.XXXXXXXXXXXXXXXXX...XXXXXXXXXXXXX",
"XXXXXXXX..XXXXXXX   XXXXXXXX.XXXXXXXXXXXXX",
"XXXXXXXX..XXXXXX     XXXXXXXXXXXXXXXXXoXXX",
"XXXXXXXX..XXXXXX     XXXXXXXXXXXXXXXXXoXXX",
"XXXXXXXX....XXXX     XXXXXXXXXXXXXXXXXXXXX",
"XXXXXXXXX...XX       XXXXXXXXXXXXXXXXXXXXX",
"XXXXXXXXX...XX       XXXXXXXXXXXXoXXXXXXXX",
"XXXXXXXXX...XX       XXXXXXXXXXXXoXXXXXXXX",
"XXXXXXXXXXXXXX      XXXXXXXXXXXXXXXXXXXXXX",
"XXXX XXXXXXXXX    XXXXXXXXXXXXXXXXXXXXXXXX",
"XXXX   XXXXXXX   XXXXXXXXXXXXXXXXXXXXXXXXX",
"XXXX   XXXXXXX   XXXXXXXXXXXXXXXXXXXXXXXXX",
"XXXX    XXXXXX   XXXXXXX.XXXXXXXXXX  XXXXX",
"XXX     XXXXXX  XXXXXXXX..XXXX XXX   XXXXX",
"XXX    XXXXXXXXXXXXXX....XXXXX   X    XXXX",
"XXX    XXXXXXXXXXXXXX....XXXXX   X    XXXX",
"XXX  XXXXXXXXXXXXXXXX.XXXXXXXX   X    XXXX",
"XXXXXXXXXXXXXXXXXXXXXXXXXXXXXX        XXXX",
"XXXXXXXXXXXXXXXXXXXXXXXXXXXXXX        XXXX",
"XXXXXXXXXXXXXXXXXXXXXXXXXXXXXX        XXXX",
"XXXXoXXXXXXXXXXXXXXXXXXXXXXXX         XXXX",
"XXXooooXXXXXoXXXXXXXXXXXXXXXX        XXXXX",
"XXXooooXXXXXXXXXXXXXooXXXXXXX        XXXXX",
"XXXooXXXXXXXXXXXXXXXooooXXXXX      XXXXXXX",
"XXXooXXXXXXXXXXXXXXXooooXXXXX      XXXXXXX",
"XXXXXXXXXXXXXXXXXXXXXXXXXXXXXX       XXXXX",
"XXXXXXXXXXXXXXXXXXXXXXXXXXXXXX       XXXXX",
"XXXXXXXXX...XXXXXXooXXXXXXXXXXX    XXXXXXX",
"XXXXXXXXX...XXXXXXooXXXXXXXXXXX    XXXXXXX",
"XXXXXXXX....XXXXXXXXXXXXXXXXXXXXXXXXXXXXXX",
"XXXoXXXX....XXXXXXXXXXXXX....XXXXXXXXXXXXX",
"XXXXXXXXXXXXXXXXXXXXXXXXXXXX..XXXXXXXoXXXX",
"XXXXXXXXXXXXXXXXXXXXXXXXXXXX..XXXXXXXoXXXX",
"XXXXXXXXXXXXXXXXXXXXXXXXXXXXXXXXXXXXXXXXXX"
};
