/* XPM */
static char *c90354cbedbc4a98f143dc5089892af8TBfFOVdDlTOp5HuT[] = {
/* columns rows colors chars-per-pixel */
"42 42 2 1 ",
"  c None",
". c black",
/* pixels */
"                                          ",
"                                          ",
"                                          ",
"                                          ",
"                                          ",
"                                          ",
"                                          ",
"                                          ",
"                                          ",
"                                          ",
"                          ..              ",
"                          ..              ",
"       .....      ..      ..              ",
"     ...        . ..      ..              ",
"    .           . ..      ..              ",
"    .           . ..      ..              ",
"    ...         . ..      ..              ",
"       ...      . ..      ..              ",
"         .      . ..      ..              ",
"         .      . ..      ..              ",
"        ..      . ..      ..              ",
"    ....        . ...     ..              ",
"                     .   ...              ",
"                     .   ...              ",
"                     .....                ",
"                      ...                 ",
"                                          ",
"                                          ",
"                                          ",
"                                          ",
"                                          ",
"                                          ",
"                                          ",
"                                          ",
"                                          ",
"                                          ",
"                                          ",
"                                          ",
"                                          ",
"                                          ",
"                                          ",
"                                          "
};
