/* XPM */
static char *_87efbc041ef40648bfc3ea570a31b2a0tbcZPb4S3cVFqAV[] = {
/* columns rows colors chars-per-pixel */
"42 42 2 1 ",
"  c None",
". c #9C2525",
/* pixels */
"                                          ",
"                                          ",
"                                          ",
"                                          ",
"                                          ",
"                .                         ",
"                .                         ",
"                                          ",
"           ...                            ",
"         ...    .    .  .                 ",
"         ...    .    .  .                 ",
"        ...     .   .   .                 ",
"        .       .   .   .                 ",
"        ...     .   .   .                 ",
"         ..     .   .    .                ",
"         ..     .   .    .                ",
"           .    . ..     .                ",
"           .    . ..     .                ",
"        ....    . ..     .                ",
"        ....    . ..     .                ",
"                . ..     .                ",
"                  ..     .                ",
"                  ..     .                ",
"                  ..     .                ",
"                  ..     .                ",
"                  ...    .                ",
"                    .    .                ",
"                    .    .                ",
"                     .  .                 ",
"                      ...                 ",
"                                          ",
"                                          ",
"                                          ",
"                                          ",
"                                          ",
"                                          ",
"                                          ",
"                                          ",
"                                          ",
"                                          ",
"                                          ",
"                                          "
};
