/* XPM */
static char *dab4bcc1714b4a218939750e056ad80aiJ05m4HVL7qXHgaI[] = {
/* columns rows colors chars-per-pixel */
"42 42 2 1 ",
"  c None",
". c #9C2525",
/* pixels */
"                                          ",
"                                          ",
"                                          ",
"                                          ",
"                                          ",
"                                          ",
"                                          ",
"                                          ",
"                                          ",
"                  ....                    ",
"                  ....                    ",
"                ..   .....                ",
"                .        ...              ",
"                .         ..              ",
"                .         ..              ",
"                .         ..              ",
"                .         ..              ",
"                .       ....              ",
"                .........                 ",
"                .........                 ",
"                .                         ",
"                .                         ",
"                .                         ",
"                .                         ",
"                .                         ",
"                .                         ",
"                .                         ",
"                .                         ",
"                .                         ",
"                                          ",
"                                          ",
"                                          ",
"                                          ",
"                                          ",
"                                          ",
"                                          ",
"                                          ",
"                                          ",
"                                          ",
"                                          ",
"                                          ",
"                                          "
};
