/* XPM */
static char *_70e9ce52f2f450ff27f19e3fd97d7ccfPJYuoJoZDgoMbm9[] = {
/* columns rows colors chars-per-pixel */
"42 42 9 1 ",
"  c black",
". c #321B04",
"X c #573905",
"o c #1B4F08",
"O c #2E7907",
"+ c #072973",
"@ c #BCA513",
"# c #D9BD61",
"$ c #AD9999",
/* pixels */
"OOOOOOOOOOOOOOOOOOOOOOOOOOOOOOOOOOOOOOOOOO",
"OOOOOOOOOOOOOOOOOOOOOOOOOOOOOOO$$OOOOOOOOO",
"OOOOOOOOOOOOOOOOOOOOOOOOOOOOOOO$$OOOOOOOOO",
"OOOOO$$OOOOOOOOOOOOOOOOOOOOOOOO$$$OOOOOOOO",
"OOOOOOOOOOOOOOOOOOOOOOOOOOOOOOO$$$OOOOoOOO",
"OOOOOOOOOOOOOO$$OOOO.....OOOOOOOOOOOOooOOO",
"OOOOOOOOOOOOOO$$OOO.......OOOOOOOOOOOooOOO",
"OOOOOOOOOOOOOOOOOO.........oOOOOOOOOOoOOOO",
"OOOOOOOOoOOOOOOOOO..#####..ooOOOOOOOOOOOOO",
"OOOOOOOOooOOOOOOO...#+#+#...oOOOOOOOOOOOOO",
"OOOOOOOOooOOOOOOX..#######..OOOOOOOOOO$OOO",
"OOOOOOOOooOOOOOOXX.#######.OOOOOOOOOOO$OOO",
"OOOOOOOOooooOOOOXX..#####..OOOOOOOOOOOOOOO",
"OOOOOOOOOoooOOXXXXX.O###O.OOOOOOOOOOOOOOOO",
"OOOOOOOOOoooOOXXXXXXX###OOOOOOOOO$OOOOOOOO",
"OOOOOOOOOoooOOXXX   @   @    OOOO$OOOOOOOO",
"OOOOOOOOOOOOOOXX    @   @     OOOOOOOOOOOO",
"OOOOXOOOOOOOOOX     @   @      OOOOOOOOOOO",
"OOOOXXXOOOOOOOO   O @   @  O   OOOOOOOOOOO",
"OOOOXXXOOOOOOO   OO @   @  OO   OOOOOOOOOO",
"OOOOXXXXOOOOOO   OO @   @  OO   OOOXXOOOOO",
"OOOXXXXXOOOOOO  OOO @   @  OOO  OOXXXOOOOO",
"OOOXXXXOOOOOOO  OOO @   @  OOO  XOXXXXOOOO",
"OOOXXXXOOOOOOO  OOO @   @  OOO  XOXXXXOOOO",
"OOOXXOOOOOOOOO##OOO @   @  OOO##XOXXXXOOOO",
"OOOOOOOOOOOOOO##OOO @   @  OOO##XXXXXXOOOO",
"OOOOOOOOOOOOOOOOOOO @   @  OOOXXXXXXXXOOOO",
"OOOOOOOOOOOOOOOOOO @@   @@  OOXXXXXXXXOOOO",
"OOOO$OOOOOOOOOOOOO @     @  OXXXXXXXXXOOOO",
"OOO$$$$OOOOO$OOOO@@@  O  @@@OXXXXXXXXOOOOO",
"OOO$$$$OOOOOOOOOO    OOO     XXXXXXXXOOOOO",
"OOO$$OOOOOOOOOOOO    O$$O    OXXXXXOOOOOOO",
"OOO$$OOOOOOOOOOOO   OO$$O    OXXXXXOOOOOOO",
"OOOOOOOOOOOOOOOOO  OOOOOOO   OXXXXXXXOOOOO",
"OOOOOOOOOOOOOOOO   OOOOOOO   OXXXXXXXOOOOO",
"OOOOOOOOOOOOOOOO   OOOOOOO   OOXXXXOOOOOOO",
"OOOOOOOOOOOOOOOXXXXOOOOOOOXXXXOXXXXOOOOOOO",
"OOOOOOOOOOOOOOO...XOOOOOOOX...OOOOOOOOOOOO",
"OOO$OOOOOOOOOO.....OOOOOOo.....OOOOOOOOOOO",
"OOOOOOOOOOOOOO....OOOOOOOOO....OOOOOO$OOOO",
"OOOOOOOOOOOOOO...OOOOOOOOOOO...OOOOOO$OOOO",
"OOOOOOOOOOOOOOOOOOOOOOOOOOOOOOOOOOOOOOOOOO"
};
