/* XPM */
static char *f7103b7b04ae412fcb0dd1bf7e9846eem6kafaOhPCB4SpCv[] = {
/* columns rows colors chars-per-pixel */
"42 42 8 1 ",
"  c #321B04",
". c #002800",
"X c #573905",
"o c #144E00",
"O c #1B4F08",
"+ c #1B5F03",
"@ c #2E7907",
"# c #AD9999",
/* pixels */
"@@@@@@@@@@@@@@@@@@@@@@@@@@@@@@@@@@@@@@@@@@",
"@@@@@@@@@@@@@@@@@@@@@@@@@@@@@@@##@@@@@@@@@",
"@@@@@@@@@@@@@@@@@@@@@@@@@@@@@@@##@@@@@@@@@",
"@@@@@##@@@@@@@@@........@@@@@@@###@@@@@@@@",
"@@@@@@@@@@@@@@@..oooooo..@@@@@@###@@@@O@@@",
"@@@@@@@@@@@@@@..@++oooo+..@@@@@@@@@@@OO@@@",
"@@@@@@@@@@@@@..@++oo@oo+o..@@@@@@@@@@OO@@@",
"@@@@@@@@@@@@@.@oooo+@@@ooo.@@@@@@@@@@O@@@@",
"@@@@@@XXO@@@@.ooo@ooo+@@oo.@@@@@@@@@@@@@@@",
"@@@@@@XXOO@@@.oo@@oooooooo.@@@@@@@@@@@@@@@",
"@@@@@@XXOO@@@.oo@++ooooooo.@@@@@@@@@@@#@@@",
"@@@@@@@@XO@@@.ooo++oo++@+o.@@@@@@@@@@@#@@@",
"@@@@@@@@XO@@@.oooooooo+@oo.@@@@@@@@@@@@@@@",
"@@@@@@@@@O@@@.ooooooo++ooo.@@@@@@@@@@@@@@@",
"@@@@@@@@@O@@@.oo@oo@o+oooo.@@@@@@#@@@@@@@@",
"@@@@@@@@@@@@@.oo@+ooooo@oo.@@@@@@#@@@@@@@@",
"@@@@@@@@@@@@@.oo@+ooooo@@o.@@@@@@@@@@@@@@@",
"@@@@X@@@@@@@@.oo@+OOOooo@o.@@@@@@@@@@@@@@@",
"@@@@XXX@@@@@@.oo@+oOOoo+@o.@@@@@@@@@@@@@@@",
"@@@@XXX@@@@@@.ooo+oo+Oo+oo.@@@@@@@@@@@@@@@",
"@@@@XXXX@@@@@.o@ooo+oO++oo.@@@@@@@@XX@@@@@",
"@@@XXXXX@@@@@.o@oo++o@++o@.@@@X@@@XXX@@@@@",
"@@@XXXX@@@@@@.@@o++oo@+++@.@@@XXX@XXXX@@@@",
"@@@XXXX@@@@@@.oo++oo@@+++@.@@@XXX@XXXX@@@@",
"@@@XX@@@@@@@@.oo++oo@++++o.@@@XXX@XXXX@@@@",
"@@@@@@@@@@@@@..o++oo++++o..@@@XXXXXXXX@@@@",
"@@@@@@@@@@@@@@..@@@o+o+o..@@@@XXXXXXXX@@@@",
"@@@@@@@@@@@@@@@.o@@o+o+o.@@@@@XXXXXXXX@@@@",
"@@@@#@@@@@@@@@@..oooooo..@@@@XXXXXXXXX@@@@",
"@@@####@@@@@#@@@........@@@@@XXXXXXXX@@@@@",
"@@@####@@@@@@@@@@@    @@@@@@@XXXXXXXX@@@@@",
"@@@##@@@@@@@@@@@@@   X##@@@@@XXXXXX@@@@@@@",
"@@@##@@@@@@@@@@@@@ X  ##@@@@@XXXXXX@@@@@@@",
"@@@@@@@@@@@@@@@@@@ X  @@@@@@@@XXXXXXX@@@@@",
"@@@@@@@@@@@@@@  @@ XX @@@@@@@@XXXXXXX@@@@@",
"@@@@@@@@@O@@@@@ @@  X @ @@@@@@@XXXX@@@@@@@",
"@@@@@@@@@OO@@@@ @@  X @  @@@@@@XXXX@@@@@@@",
"@@@@@@@@OOO   @@@@ X  @@@@@@@@@@@@@@@@@@@@",
"@@@#@@@@OO  @   @@ X  @@@@@@@@@@@@@@@@@@@@",
"@@@@@@@@@@ @@@@@@@    @    @@@@@@@@@@#@@@@",
"@@@@@@@@@@@@@@@@@@@@@@@@@@     @@@@@@#@@@@",
"@@@@@@@@@@@@    @@@@@@@@@@@@@@@@@@@@@@@@@@"
};
